<svg width="64" height="64" viewBox="0 0 64 64" fill="none" xmlns="http://www.w3.org/2000/svg">
<path d="M40 7.99797C40.0005 9.77189 39.4113 11.4956 38.3252 12.8982C37.2391 14.3007 35.7176 15.3025 34 15.746V36.094C37.452 36.426 40 37.602 40 38.998C40 40.654 36.42 41.998 32 41.998C27.58 41.998 24 40.654 24 38.998C24 37.598 26.548 36.426 30 36.094V15.746C28.5513 15.3719 27.2366 14.5991 26.2051 13.5153C25.1736 12.4316 24.4667 11.0802 24.1647 9.61485C23.8627 8.14947 23.9776 6.62875 24.4966 5.22544C25.0155 3.82212 25.9175 2.59244 27.1002 1.67607C28.2829 0.7597 29.6989 0.193362 31.1874 0.0413834C32.6758 -0.110596 34.1771 0.157875 35.5206 0.816303C36.8641 1.47473 37.996 2.49673 38.7879 3.76621C39.5797 5.0357 39.9996 6.50179 40 7.99797Z" fill="#808080"/>
<path d="M6.052e-10 38.658V45.526C0.000396595 46.2686 0.207532 46.9965 0.598209 47.6281C0.988886 48.2597 1.54768 48.77 2.212 49.102L28.424 62.21C29.5344 62.7648 30.7587 63.0537 32 63.0537C33.2413 63.0537 34.4656 62.7648 35.576 62.21L61.788 49.102C62.4523 48.77 63.0111 48.2597 63.4018 47.6281C63.7925 46.9965 63.9996 46.2686 64 45.526V38.658C64 38.258 63.76 37.898 63.392 37.738L38 26.858V30.83L58.908 39.542C58.9984 39.58 59.0756 39.6438 59.13 39.7253C59.1844 39.8069 59.2136 39.9026 59.214 40.0006C59.2145 40.0987 59.1861 40.1947 59.1324 40.2767C59.0787 40.3587 59.002 40.4232 58.912 40.462L35.152 50.646C34.156 51.0729 33.0837 51.2931 32 51.2931C30.9163 51.2931 29.844 51.0729 28.848 50.646L5.088 40.462C4.99797 40.4232 4.92134 40.3587 4.86763 40.2767C4.81393 40.1947 4.78553 40.0987 4.78595 40.0006C4.78638 39.9026 4.81562 39.8069 4.87003 39.7253C4.92445 39.6438 5.00164 39.58 5.092 39.542L26 30.83L25.948 26.878L0.608 37.738C0.427626 37.8148 0.273825 37.943 0.165724 38.1066C0.0576236 38.2702 -6.81917e-06 38.4619 6.052e-10 38.658Z" fill="#808080"/>
<circle cx="32" cy="8" r="8" fill="#C20808"/>
</svg>
