<svg width="288" height="122" viewBox="0 0 288 122" fill="none" xmlns="http://www.w3.org/2000/svg">
<rect width="287.753" height="121.767" rx="10" fill="#0D0C0C"/>
<path d="M18.1781 88V30.8H28.8981L55.3781 49.36H55.7781L82.2581 30.8H92.9781V88H80.1781V46.8L62.0181 58.96V88H49.2181V58.96L30.9781 46.8V88H18.1781ZM104.194 88V30.8H116.994V88H104.194ZM126.338 88.4V78L172.338 78.08C174.685 78.08 176.471 77.5467 177.698 76.48C178.978 75.36 179.618 73.5733 179.618 71.12C179.618 68.6667 178.978 66.9067 177.698 65.84C176.471 64.72 174.685 64.16 172.338 64.16H143.698C137.778 64.16 133.165 62.7467 129.858 59.92C126.605 57.04 124.978 52.8267 124.978 47.28C124.978 41.7333 126.605 37.5467 129.858 34.72C133.165 31.84 137.778 30.4 143.698 30.4H188.658V40.8L145.058 40.72C142.765 40.72 140.978 41.2533 139.698 42.32C138.418 43.3333 137.778 44.9867 137.778 47.28C137.778 49.5733 138.418 51.2533 139.698 52.32C140.978 53.3333 142.765 53.84 145.058 53.84H173.698C179.618 53.84 184.205 55.3067 187.458 58.24C190.765 61.12 192.418 65.4133 192.418 71.12C192.418 76.7733 190.765 81.0667 187.458 84C184.205 86.9333 179.618 88.4 173.698 88.4H126.338ZM198.444 59.76V30.8H268.844V59.76H255.884V41.2H238.444V88H225.644V41.2H211.404V59.76H198.444Z" fill="#D9D9D9"/>
<rect x="16" y="95" width="256.062" height="9.36673" fill="#E8C902"/>
<rect x="16" y="13" width="256.062" height="9.36673" fill="#0284B8"/>
</svg>
