<svg width="285" height="92" viewBox="0 0 285 92" fill="none" xmlns="http://www.w3.org/2000/svg">
<path d="M18.1781 75V17.8H28.8981L55.3781 36.36H55.7781L82.2581 17.8H92.9781V75H80.1781V33.8L62.0181 45.96V75H49.2181V45.96L30.9781 33.8V75H18.1781ZM104.194 75V17.8H116.994V75H104.194ZM126.338 75.4V65L172.338 65.08C174.685 65.08 176.471 64.5467 177.698 63.48C178.978 62.36 179.618 60.5733 179.618 58.12C179.618 55.6667 178.978 53.9067 177.698 52.84C176.471 51.72 174.685 51.16 172.338 51.16H143.698C137.778 51.16 133.165 49.7467 129.858 46.92C126.605 44.04 124.978 39.8267 124.978 34.28C124.978 28.7333 126.605 24.5467 129.858 21.72C133.165 18.84 137.778 17.4 143.698 17.4H188.658V27.8L145.058 27.72C142.765 27.72 140.978 28.2533 139.698 29.32C138.418 30.3333 137.778 31.9867 137.778 34.28C137.778 36.5733 138.418 38.2533 139.698 39.32C140.978 40.3333 142.765 40.84 145.058 40.84H173.698C179.618 40.84 184.205 42.3067 187.458 45.24C190.765 48.12 192.418 52.4133 192.418 58.12C192.418 63.7733 190.765 68.0667 187.458 71C184.205 73.9333 179.618 75.4 173.698 75.4H126.338ZM198.444 46.76V17.8H268.844V46.76H255.884V28.2H238.444V75H225.644V28.2H211.404V46.76H198.444Z" fill="#D9D9D9"/>
<rect x="16" y="82" width="256.062" height="9.36673" fill="#E8C902"/>
<rect x="16" width="256.062" height="9.36673" fill="#0284B8"/>
</svg>
