<svg width="90" height="90" viewBox="0 0 90 90" fill="none" xmlns="http://www.w3.org/2000/svg">
<path d="M90 20V80C90 82.75 89.0217 85.105 87.065 87.065C85.1083 89.025 82.7533 90.0033 80 90H10C7.25 90 4.89667 89.0217 2.94 87.065C0.983334 85.1083 0.00333333 82.7533 0 80V10C0 7.25 0.98 4.89667 2.94 2.94C4.9 0.983333 7.25333 0.00333333 10 0H70L90 20ZM80 24.25L65.75 10H10V80H80V24.25ZM45 75C49.1667 75 52.7083 73.5417 55.625 70.625C58.5417 67.7083 60 64.1667 60 60C60 55.8333 58.5417 52.2917 55.625 49.375C52.7083 46.4583 49.1667 45 45 45C40.8333 45 37.2917 46.4583 34.375 49.375C31.4583 52.2917 30 55.8333 30 60C30 64.1667 31.4583 67.7083 34.375 70.625C37.2917 73.5417 40.8333 75 45 75ZM15 35H60V15H15V35ZM10 24.25V80V10V24.25Z" fill="#1A1A1A"/>
</svg>
