<svg width="54" height="32" viewBox="0 0 54 32" fill="none" xmlns="http://www.w3.org/2000/svg">
<path d="M5.33333 32C3.86667 32 2.61156 31.4782 1.568 30.4347C0.524445 29.3911 0.00177778 28.1351 0 26.6667V5.33333C0 3.86667 0.522667 2.61156 1.568 1.568C2.61333 0.524444 3.86844 0.00177778 5.33333 0H48C49.4667 0 50.7227 0.522666 51.768 1.568C52.8133 2.61333 53.3351 3.86844 53.3333 5.33333V26.6667C53.3333 28.1333 52.8116 29.3893 51.768 30.4347C50.7244 31.48 49.4684 32.0018 48 32H5.33333ZM13.3333 24H18.6667V18.6667H24V13.3333H18.6667V8H13.3333V13.3333H8V18.6667H13.3333V24ZM33.3333 24C34.4444 24 35.3893 23.6116 36.168 22.8347C36.9467 22.0578 37.3351 21.1129 37.3333 20C37.3316 18.8871 36.9431 17.9431 36.168 17.168C35.3929 16.3929 34.448 16.0036 33.3333 16C32.2187 15.9964 31.2747 16.3858 30.5013 17.168C29.728 17.9502 29.3387 18.8942 29.3333 20C29.328 21.1058 29.7173 22.0507 30.5013 22.8347C31.2853 23.6187 32.2293 24.0071 33.3333 24ZM41.3333 16C42.4444 16 43.3893 15.6116 44.168 14.8347C44.9467 14.0578 45.3351 13.1129 45.3333 12C45.3316 10.8871 44.9431 9.94311 44.168 9.168C43.3929 8.39289 42.448 8.00356 41.3333 8C40.2187 7.99645 39.2747 8.38578 38.5013 9.168C37.728 9.95022 37.3387 10.8942 37.3333 12C37.328 13.1058 37.7173 14.0507 38.5013 14.8347C39.2853 15.6187 40.2293 16.0071 41.3333 16Z" fill="#B23E3E"/>
</svg>
