<svg width="54" height="54" viewBox="0 0 54 54" fill="none" xmlns="http://www.w3.org/2000/svg">
<path d="M24.8 20.8L19.4667 15.4667C19.2 15.2 19 14.9004 18.8667 14.568C18.7333 14.2356 18.6667 13.8907 18.6667 13.5333V2.66667C18.6667 1.91111 18.9227 1.27822 19.4347 0.768C19.9467 0.257778 20.5796 0.00177778 21.3333 0H32C32.7556 0 33.3893 0.256 33.9013 0.768C34.4133 1.28 34.6684 1.91289 34.6667 2.66667V13.5333C34.6667 13.8889 34.6 14.2338 34.4667 14.568C34.3333 14.9022 34.1333 15.2018 33.8667 15.4667L28.5333 20.8C28.2667 21.0667 27.9778 21.256 27.6667 21.368C27.3556 21.48 27.0222 21.5351 26.6667 21.5333C26.3111 21.5316 25.9778 21.4764 25.6667 21.368C25.3556 21.2596 25.0667 21.0702 24.8 20.8ZM32.5333 28.5333C32.2667 28.2667 32.0782 27.9778 31.968 27.6667C31.8578 27.3556 31.8018 27.0222 31.8 26.6667C31.7982 26.3111 31.8542 25.9778 31.968 25.6667C32.0818 25.3556 32.2702 25.0667 32.5333 24.8L37.8667 19.4667C38.1333 19.2 38.4338 19 38.768 18.8667C39.1022 18.7333 39.4462 18.6667 39.8 18.6667H50.6667C51.4222 18.6667 52.056 18.9227 52.568 19.4347C53.08 19.9467 53.3351 20.5796 53.3333 21.3333V32C53.3333 32.7556 53.0773 33.3893 52.5653 33.9013C52.0533 34.4133 51.4204 34.6684 50.6667 34.6667H39.8C39.4444 34.6667 39.1004 34.6 38.768 34.4667C38.4356 34.3333 38.1351 34.1333 37.8667 33.8667L32.5333 28.5333ZM0 32V21.3333C0 20.5778 0.256 19.9449 0.768 19.4347C1.28 18.9244 1.91289 18.6684 2.66667 18.6667H13.5333C13.8889 18.6667 14.2338 18.7333 14.568 18.8667C14.9022 19 15.2018 19.2 15.4667 19.4667L20.8 24.8C21.0667 25.0667 21.256 25.3556 21.368 25.6667C21.48 25.9778 21.5351 26.3111 21.5333 26.6667C21.5316 27.0222 21.4764 27.3556 21.368 27.6667C21.2596 27.9778 21.0702 28.2667 20.8 28.5333L15.4667 33.8667C15.2 34.1333 14.9004 34.3333 14.568 34.4667C14.2356 34.6 13.8907 34.6667 13.5333 34.6667H2.66667C1.91111 34.6667 1.27822 34.4107 0.768 33.8987C0.257778 33.3867 0.00177778 32.7538 0 32ZM18.6667 50.6667V39.8C18.6667 39.4444 18.7333 39.1004 18.8667 38.768C19 38.4356 19.2 38.1351 19.4667 37.8667L24.8 32.5333C25.0667 32.2667 25.3556 32.0782 25.6667 31.968C25.9778 31.8578 26.3111 31.8018 26.6667 31.8C27.0222 31.7982 27.3556 31.8542 27.6667 31.968C27.9778 32.0818 28.2667 32.2702 28.5333 32.5333L33.8667 37.8667C34.1333 38.1333 34.3333 38.4338 34.4667 38.768C34.6 39.1022 34.6667 39.4462 34.6667 39.8V50.6667C34.6667 51.4222 34.4107 52.056 33.8987 52.568C33.3867 53.08 32.7538 53.3351 32 53.3333H21.3333C20.5778 53.3333 19.9449 53.0773 19.4347 52.5653C18.9244 52.0533 18.6684 51.4204 18.6667 50.6667Z" fill="#979797"/>
</svg>
