<svg width="60" height="44" viewBox="0 0 60 44" fill="none" xmlns="http://www.w3.org/2000/svg">
<path d="M58.387 20.6726C55.7357 8.6864 51.7457 2.2889 45.827 0.541397C44.5828 0.176405 43.2923 -0.00591574 41.9957 0.00014633C40.282 0.00014633 38.7895 0.417646 37.2107 0.860146C35.3082 1.3939 33.1469 2.00015 29.9957 2.00015C26.8444 2.00015 24.6819 1.39515 22.7757 0.861396C21.1957 0.417646 19.7044 0.00014633 17.9957 0.00014633C16.655 -0.00456729 15.3201 0.177173 14.0295 0.540146C8.14195 2.28015 4.15445 8.67515 1.46445 20.6651C-1.42805 33.5676 -0.00430059 41.7139 5.45695 43.6039C6.20554 43.8678 6.9932 44.0039 7.78695 44.0064C11.5282 44.0064 14.5282 40.8901 16.5782 38.3389C18.8944 35.4514 21.6057 33.9864 29.9957 33.9864C37.4894 33.9864 40.5907 35.0026 43.2695 38.3389C44.9532 40.4364 46.5445 41.9039 48.132 42.8276C50.2432 44.0551 52.3532 44.3276 54.402 43.6239C57.6295 42.5226 59.4795 39.6114 59.902 34.9689C60.2232 31.4089 59.7282 26.7326 58.387 20.6726ZM23.9957 20.0001H19.9957V24.0001C19.9957 24.5306 19.785 25.0393 19.4099 25.4144C19.0348 25.7894 18.5261 26.0001 17.9957 26.0001C17.4653 26.0001 16.9566 25.7894 16.5815 25.4144C16.2064 25.0393 15.9957 24.5306 15.9957 24.0001V20.0001H11.9957C11.4653 20.0001 10.9566 19.7894 10.5815 19.4144C10.2064 19.0393 9.9957 18.5306 9.9957 18.0001C9.9957 17.4697 10.2064 16.961 10.5815 16.5859C10.9566 16.2109 11.4653 16.0001 11.9957 16.0001H15.9957V12.0001C15.9957 11.4697 16.2064 10.961 16.5815 10.5859C16.9566 10.2109 17.4653 10.0001 17.9957 10.0001C18.5261 10.0001 19.0348 10.2109 19.4099 10.5859C19.785 10.961 19.9957 11.4697 19.9957 12.0001V16.0001H23.9957C24.5261 16.0001 25.0348 16.2109 25.4099 16.5859C25.785 16.961 25.9957 17.4697 25.9957 18.0001C25.9957 18.5306 25.785 19.0393 25.4099 19.4144C25.0348 19.7894 24.5261 20.0001 23.9957 20.0001ZM34.4957 20.5001C34.0012 20.5001 33.5179 20.3535 33.1068 20.0788C32.6957 19.8041 32.3752 19.4137 32.186 18.9569C31.9968 18.5 31.9473 17.9974 32.0437 17.5124C32.1402 17.0275 32.3783 16.582 32.7279 16.2324C33.0776 15.8827 33.523 15.6446 34.008 15.5482C34.4929 15.4517 34.9956 15.5012 35.4524 15.6904C35.9092 15.8797 36.2997 16.2001 36.5744 16.6112C36.8491 17.0223 36.9957 17.5057 36.9957 18.0001C36.9957 18.6632 36.7323 19.2991 36.2635 19.7679C35.7946 20.2368 35.1587 20.5001 34.4957 20.5001ZM39.9957 26.0001C39.501 26.0001 39.0174 25.8534 38.6061 25.5784C38.1949 25.3034 37.8744 24.9126 37.6854 24.4554C37.4964 23.9982 37.4472 23.4952 37.5442 23.0101C37.6412 22.525 37.8799 22.0796 38.2302 21.7302C38.5804 21.3808 39.0265 21.1432 39.5118 21.0474C39.9972 20.9517 40.5 21.0021 40.9567 21.1922C41.4135 21.3824 41.8035 21.7038 42.0774 22.1158C42.3514 22.5277 42.4969 23.0117 42.4957 23.5064C42.494 24.1684 42.2299 24.8026 41.7613 25.2701C41.2926 25.7376 40.6577 26.0001 39.9957 26.0001ZM39.9957 15.0001C39.5012 15.0001 39.0179 14.8535 38.6068 14.5788C38.1957 14.3041 37.8752 13.9137 37.686 13.4569C37.4968 13 37.4473 12.4974 37.5437 12.0124C37.6402 11.5275 37.8783 11.082 38.2279 10.7324C38.5776 10.3827 39.023 10.1446 39.508 10.0482C39.9929 9.95172 40.4956 10.0012 40.9524 10.1904C41.4092 10.3797 41.7997 10.7001 42.0744 11.1112C42.3491 11.5223 42.4957 12.0057 42.4957 12.5001C42.4957 13.1632 42.2323 13.7991 41.7635 14.2679C41.2946 14.7368 40.6587 15.0001 39.9957 15.0001ZM45.4957 20.5001C45.0012 20.5001 44.5179 20.3535 44.1068 20.0788C43.6957 19.8041 43.3752 19.4137 43.186 18.9569C42.9968 18.5 42.9473 17.9974 43.0437 17.5124C43.1402 17.0275 43.3783 16.582 43.7279 16.2324C44.0776 15.8827 44.523 15.6446 45.008 15.5482C45.4929 15.4517 45.9956 15.5012 46.4524 15.6904C46.9092 15.8797 47.2997 16.2001 47.5744 16.6112C47.8491 17.0223 47.9957 17.5057 47.9957 18.0001C47.9957 18.6632 47.7323 19.2991 47.2635 19.7679C46.7946 20.2368 46.1587 20.5001 45.4957 20.5001Z" fill="#254CC3"/>
</svg>
