<svg width="38" height="42" viewBox="0 0 38 42" fill="none" xmlns="http://www.w3.org/2000/svg">
<path d="M18.6666 41.136C13.5131 41.136 9.14177 39.7389 5.55277 36.9446C1.96377 34.1504 0.168388 30.7464 0.166626 26.7327V18.5022H37.1666V26.7327C37.1666 30.745 35.3721 34.149 31.7831 36.9446C28.1941 39.7402 23.822 41.1374 18.6666 41.136ZM0.166626 14.387C0.166626 10.7862 1.66424 7.6401 4.65948 4.94874C7.65472 2.25739 11.4428 0.653133 16.0238 0.135986V14.387H0.166626ZM21.3095 14.387V0.138044C25.8904 0.652448 29.6785 2.25601 32.6738 4.94874C35.669 7.64147 37.1666 10.7876 37.1666 14.387H21.3095Z" fill="#EAEAEA"/>
</svg>
