<svg width="48" height="54" viewBox="0 0 48 54" fill="none" xmlns="http://www.w3.org/2000/svg">
<path d="M26.6667 1.37633e-05C30.6193 -0.00400583 34.5232 0.872473 38.0948 2.56578C41.6664 4.25908 44.8159 6.72669 47.3147 9.78935L30.4373 26.6667L47.3147 43.544C44.8159 46.6067 41.6664 49.0743 38.0948 50.7676C34.5232 52.4609 30.6193 53.3374 26.6667 53.3333C11.9387 53.3333 0 41.3947 0 26.6667C0 11.9387 11.9387 1.37633e-05 26.6667 1.37633e-05ZM26.6667 8.00001C25.6058 8.00001 24.5884 8.42144 23.8382 9.17159C23.0881 9.92173 22.6667 10.9391 22.6667 12C22.6667 13.0609 23.0881 14.0783 23.8382 14.8284C24.5884 15.5786 25.6058 16 26.6667 16C27.7275 16 28.7449 15.5786 29.4951 14.8284C30.2452 14.0783 30.6667 13.0609 30.6667 12C30.6667 10.9391 30.2452 9.92173 29.4951 9.17159C28.7449 8.42144 27.7275 8.00001 26.6667 8.00001Z" fill="#F0E916"/>
</svg>
