<svg width="58" height="52" viewBox="0 0 58 52" fill="none" xmlns="http://www.w3.org/2000/svg">
<path d="M11.1691 37.2933C11.1691 36.5947 11.1478 35.9262 11.1051 35.288ZM11.1051 35.288C10.7265 29.496 8.74513 26.2213 7.13179 24.5893C4.34246 27.4107 -2.09487 38.7067 5.77713 47.176L18.4971 41.5307C18.7514 42.56 19.0607 43.5804 19.4251 44.592C20.2545 46.9013 20.6705 48.0587 22.0518 49.0293C23.4305 50 24.9558 50 28.0038 50H29.3265C32.3745 50 33.8998 50 35.2785 49.0293C36.6571 48.0587 37.0758 46.904 37.9051 44.592C38.2678 43.5787 38.5771 42.5573 38.8331 41.528L51.5531 47.176C59.4278 38.7067 52.9878 27.4107 50.2011 24.5893C48.5851 26.224 46.6011 29.496 46.2278 35.288M11.1051 35.288L14.0331 34.1813C15.6571 33.568 16.4678 33.2613 16.9318 32.648C17.3958 32.0347 17.4785 31.088 17.6438 29.1973C18.6811 17.2853 24.4678 6.32 28.6651 2C32.8625 6.32 38.6491 17.2853 39.6865 29.1973C39.8518 31.0907 39.9345 32.0347 40.3985 32.648C40.8625 33.2613 41.6731 33.568 43.2971 34.1813L46.2251 35.288M46.1611 37.2933C46.1611 36.5947 46.1825 35.9262 46.2251 35.288ZM28.6651 20.6667V23.3333ZM49.9985 15.3333V12.6667ZM49.9985 4.66667V2ZM7.33179 15.3333V12.6667ZM7.33179 4.66667V2Z" fill="#7D358F"/>
<path d="M11.1691 37.2933C11.1691 36.5947 11.1478 35.9262 11.1051 35.288M11.1051 35.288C10.7265 29.496 8.74513 26.2213 7.13179 24.5893C4.34246 27.4107 -2.09487 38.7067 5.77713 47.176L18.4971 41.5307C18.7514 42.56 19.0607 43.5804 19.4251 44.592C20.2545 46.9013 20.6705 48.0587 22.0518 49.0293C23.4305 50 24.9558 50 28.0038 50H29.3265C32.3745 50 33.8998 50 35.2785 49.0293C36.6571 48.0587 37.0758 46.904 37.9051 44.592C38.2678 43.5787 38.5771 42.5573 38.8331 41.528L51.5531 47.176C59.4278 38.7067 52.9878 27.4107 50.2011 24.5893C48.5851 26.224 46.6011 29.496 46.2278 35.288M11.1051 35.288L14.0331 34.1813C15.6571 33.568 16.4678 33.2613 16.9318 32.648C17.3958 32.0347 17.4785 31.088 17.6438 29.1973C18.6811 17.2853 24.4678 6.32 28.6651 2C32.8625 6.32 38.6491 17.2853 39.6865 29.1973C39.8518 31.0907 39.9345 32.0347 40.3985 32.648C40.8625 33.2613 41.6731 33.568 43.2971 34.1813L46.2251 35.288C46.1825 35.9262 46.1611 36.5947 46.1611 37.2933M28.6651 20.6667V23.3333M49.9985 15.3333V12.6667M49.9985 4.66667V2M7.33179 15.3333V12.6667M7.33179 4.66667V2" stroke="#EDEDED" stroke-width="4" stroke-linecap="round" stroke-linejoin="round"/>
</svg>
